<svg xmlns="http://www.w3.org/2000/svg" viewBox="0 0 1200 500" role="img" aria-labelledby="title desc"><title id="title">São Paulo skyline</title><desc id="desc">Stylized São Paulo buildings beneath a warm sunset sky</desc><defs><linearGradient id="sky" x1="0" y1="0" x2="0" y2="1"><stop stop-color="#e8a43c"/><stop offset=".55" stop-color="#477a9f"/><stop offset="1" stop-color="#173b59"/></linearGradient></defs><rect width="1200" height="500" fill="url(#sky)"/><circle cx="930" cy="112" r="62" fill="#ffe2a0" opacity=".8"/><path fill="#102f49" d="M0 390h85V270h75v120h45V225h90v165h45V305h70v85h38V180h92v210h50V250h95v140h42V290h80v100h42V210h100v180h55V320h86v70h80v110H0z"/><path fill="#1d4e70" d="M0 420h135V330h75v90h85V290h90v130h95V350h72v70h85V275h86v145h90V345h83v75h120v80H0z"/><g fill="#f6c760" opacity=".75"><path d="M225 250h12v18h-12zm28 0h12v18h-12zm205-40h13v20h-13zm29 0h13v20h-13zm153 68h13v19h-13zm30 0h13v19h-13zm174-42h13v20h-13zm30 0h13v20h-13z"/></g></svg>
